<svg viewBox="0 0 64 64" xmlns="http://www.w3.org/2000/svg">
  <g id="Male_Body" data-name="Male Body" fill="#f4f4f4" stroke="#f4f4f4">
    <ellipse cx="14" cy="22.02" rx=".977" ry=".984" fill="#f4f4f4"/>
    <ellipse cx="50" cy="22.02" rx=".977" ry=".984" fill="#f4f4f4"/>
    <circle cx="32" cy="55.02" r="1.036" fill="#f4f4f4"/>
    <path d="m20.78467 42.02686a30.53947 30.53947 0 0 1 6.25244-10.36621 1.00016 1.00016 0 0 1 1.47363 1.35254 28.52432 28.52432 0 0 0 -5.84228 9.68652 1.00018 1.00018 0 0 1 -1.88379-.67285z" fill="#f4f4f4"/>
    <path d="m41.33154 42.69971a28.52428 28.52428 0 0 0 -5.84228-9.68652 1.00016 1.00016 0 0 1 1.47363-1.35254 30.53943 30.53943 0 0 1 6.25244 10.36621 1.00019 1.00019 0 0 1 -1.88379.67285z" fill="#f4f4f4"/>
    <path d="m31 49.77833v-13.98194a1 1 0 0 1 2 0v13.98194a1 1 0 0 1 -2 0z" fill="#f4f4f4"/>
    <path d="m34.09537 6.52882.02539-.01612c4.65637-2.89522 7.90824-2.54729 13.33838-1.97851a1.00018 1.00018 0 0 1 -.21 1.98925c-4.9541-.5298-7.89147-.91194-12.04688 1.67188a1.00037 1.00037 0 0 1 -1.10689-1.6665z" fill="#f4f4f4"/>
    <path d="m29.90463 6.52882-.02539-.01612c-2.8254-1.75677-4.83342-2.86935-13.33838-1.97851a1.00018 1.00018 0 0 0 .21 1.98925c4.9541-.5298 7.89147-.91194 12.04688 1.67188a1.00037 1.00037 0 0 0 1.10689-1.6665z" fill="#f4f4f4"/>
    <path d="m57.74414 16.76856a1.00015 1.00015 0 0 0 -1.97851.29395 7.70416 7.70416 0 0 1 -.21387 3.34131 8.25914 8.25914 0 0 1 -7.46776 5.67724c-1.50565.12353-7.04492.48482-9.457-.20556-3.19083-.91333-5.627-2.99785-5.627-6.31836v-3.71a1 1 0 0 0 -2 0v3.71c0 3.31965-2.43464 5.40459-5.627 6.31836-2.33683.66971-7.68234.35114-9.45752.20556a8.26026 8.26026 0 0 1 -7.46729-5.67773 7.70127 7.70127 0 0 1 -.21386-3.34082 1.00016 1.00016 0 0 0 -1.97852-.29395 9.50135 9.50135 0 0 0 3.2655 8.76721c.59009 2.65656 1.24829 5.32868 1.96594 7.94812.63672 2.32666 1.33155 4.665 2.064 6.94873.37652 1.17574.15365 1.13484.41943 6.76905.28128 5.90243.3838 5.86545.14356 6.87646l-1.08155 4.54346a.99982.99982 0 0 0 1.94532.46289l1.08156-4.54348c.32555-1.36986.18316-1.617-.09082-7.43359-.26341-5.5691-.02459-5.75859-.5127-7.28516-.72412-2.25683-1.41015-4.56738-2.04-6.8667-.53058-1.93774-1.01716-3.90454-1.47986-5.87219a11.33371 11.33371 0 0 0 3.81579.99085c2.687.221 7.5804.466 10.17188-.27588a9.87985 9.87985 0 0 0 6.07623-4.38086 9.88036 9.88036 0 0 0 6.07611 4.38086c2.695.77152 8.25783.43332 10.17139.27588a11.33576 11.33576 0 0 0 3.81634-.99091c-.4627 1.96771-.94934 3.93451-1.47992 5.87225-.62988 2.29932-1.31591 4.60987-2.04052 6.86768-.48749 1.52591-.24894 1.71874-.51221 7.28369-.27346 5.80785-.417 6.0617-.09082 7.43408l1.08154 4.54348a.99982.99982 0 0 0 1.94532-.46289l-1.08155-4.54346c-.24109-1.01461-.13713-.98474.14356-6.877.2658-5.63329.04312-5.59268.41894-6.76758.73291-2.28467 1.42774-4.623 2.06446-6.94971.71765-2.61944 1.37585-5.29156 1.96594-7.94812a9.5004 9.5004 0 0 0 3.2655-8.76721z" fill="#f4f4f4"/>
  </g>
</svg>